<svg width="339" height="203" viewBox="0 0 339 203" fill="none" xmlns="http://www.w3.org/2000/svg">
<path d="M39.5081 203V178.026C39.5081 176.535 39.5616 175.044 39.6685 173.553C39.8111 172.026 39.9893 170.535 40.2031 169.08H39.5081C37.9756 171.529 35.8549 173.606 33.1462 175.31C30.4731 177.014 26.9446 177.866 22.5608 177.866C15.8246 177.866 10.3716 175.274 6.20155 170.091C2.06718 164.873 0 157.223 0 147.141C0 140.36 0.962309 134.68 2.88693 130.1C4.81154 125.485 7.48462 122.006 10.9062 119.663C14.3634 117.32 18.3551 116.149 22.8816 116.149C27.2654 116.149 30.8117 117.001 33.5204 118.705C36.2648 120.373 38.4924 122.432 40.2031 124.882H40.6308L42.0743 117.267H55.8674V203H39.5081ZM28.3881 165.139C31.382 165.139 33.7521 164.553 35.4985 163.382C37.2806 162.21 38.5636 160.453 39.3477 158.11C40.1318 155.732 40.5595 152.767 40.6308 149.217V147.247C40.6308 141.46 39.7398 137.041 37.9577 133.988C36.1757 130.899 32.8967 129.355 28.1208 129.355C24.2359 129.355 21.349 130.899 19.46 133.988C17.571 137.076 16.6266 141.531 16.6266 147.354C16.6266 153.282 17.5889 157.737 19.5135 160.719C21.4381 163.666 24.3963 165.139 28.3881 165.139Z" fill="#0054D1"/>
<path d="M127.773 117.267V176.801H115.263L113.071 169.186H112.216C110.933 171.21 109.329 172.86 107.404 174.138C105.48 175.416 103.359 176.357 101.042 176.961C98.7258 177.564 96.32 177.866 93.8251 177.866C89.5482 177.866 85.8237 177.12 82.6516 175.629C79.4796 174.103 77.0025 171.742 75.2205 168.547C73.4741 165.352 72.6009 161.199 72.6009 156.087V117.267H88.9066V152.04C88.9066 156.3 89.6729 159.512 91.2055 161.678C92.7381 163.843 95.1795 164.926 98.5297 164.926C101.844 164.926 104.446 164.181 106.335 162.69C108.224 161.163 109.543 158.944 110.291 156.033C111.075 153.087 111.467 149.501 111.467 145.277V117.267H127.773Z" fill="#0054D1"/>
<path d="M161.187 117.267V176.801H144.881V117.267H161.187ZM153.061 93.9435C155.484 93.9435 157.569 94.5115 159.316 95.6475C161.062 96.7481 161.935 98.8248 161.935 101.878C161.935 104.895 161.062 106.99 159.316 108.161C157.569 109.297 155.484 109.865 153.061 109.865C150.601 109.865 148.499 109.297 146.752 108.161C145.041 106.99 144.186 104.895 144.186 101.878C144.186 98.8248 145.041 96.7481 146.752 95.6475C148.499 94.5115 150.601 93.9435 153.061 93.9435Z" fill="#0054D1"/>
<path d="M219.941 176.801H172.734V167.216L200.428 129.674H174.392V117.267H218.979V127.811L192.034 164.394H219.941V176.801Z" fill="#0054D1"/>
<path d="M273.403 176.801H226.196V167.216L253.889 129.674H227.853V117.267H272.44V127.811L245.496 164.394H273.403V176.801Z" fill="#0054D1"/>
<path d="M276.717 117.267H294.573L305.854 150.762C306.21 151.827 306.513 152.909 306.763 154.01C307.012 155.11 307.226 156.246 307.404 157.418C307.582 158.589 307.725 159.814 307.832 161.092H308.153C308.367 159.175 308.652 157.382 309.008 155.714C309.4 154.045 309.881 152.395 310.452 150.762L321.518 117.267H339L313.713 184.416C312.18 188.534 310.184 191.959 307.725 194.693C305.266 197.462 302.432 199.539 299.225 200.923C296.053 202.308 292.56 203 288.746 203C286.893 203 285.289 202.894 283.935 202.681C282.58 202.503 281.422 202.308 280.46 202.095V189.208C281.208 189.386 282.153 189.545 283.293 189.687C284.434 189.829 285.628 189.9 286.875 189.9C289.156 189.9 291.116 189.421 292.756 188.463C294.395 187.504 295.767 186.208 296.872 184.575C297.977 182.978 298.85 181.221 299.492 179.304L300.454 176.375L276.717 117.267Z" fill="#0054D1"/>
<path d="M39.5081 0V24.9744C39.5081 26.4654 39.5616 27.9564 39.6685 29.4474C39.8111 30.9739 39.9893 32.4649 40.2031 33.9204H39.5081C37.9756 31.4709 35.8549 29.3941 33.1462 27.6901C30.4731 25.9861 26.9446 25.1341 22.5608 25.1341C15.8246 25.1341 10.3716 27.7256 6.20155 32.9086C2.06718 38.1272 0 45.7774 0 55.8595C0 62.64 0.962309 68.32 2.88693 72.8996C4.81154 77.5146 7.48462 80.9936 10.9062 83.3366C14.3634 85.6796 18.3551 86.8511 22.8816 86.8511C27.2654 86.8511 30.8117 85.9991 33.5204 84.2951C36.2648 82.6266 38.4924 80.5676 40.2031 78.1181H40.6308L42.0743 85.7329H55.8674V0H39.5081ZM28.3881 37.8609C31.382 37.8609 33.7521 38.4467 35.4985 39.6182C37.2806 40.7897 38.5636 42.5469 39.3477 44.8899C40.1318 47.2684 40.5595 50.2327 40.6308 53.7827V55.753C40.6308 61.5395 39.7398 65.9593 37.9577 69.0123C36.1757 72.1008 32.8967 73.6451 28.1208 73.6451C24.2359 73.6451 21.349 72.1008 19.46 69.0123C17.571 65.9238 16.6266 61.4685 16.6266 55.6465C16.6266 49.718 17.5889 45.2627 19.5135 42.2807C21.4381 39.3342 24.3963 37.8609 28.3881 37.8609Z" fill="#0054D1"/>
<path d="M127.773 85.7329V26.1991H115.263L113.071 33.8139H112.216C110.933 31.7904 109.329 30.1396 107.404 28.8616C105.48 27.5836 103.359 26.6429 101.042 26.0394C98.7258 25.4359 96.32 25.1341 93.8251 25.1341C89.5482 25.1341 85.8237 25.8796 82.6516 27.3706C79.4796 28.8971 77.0025 31.2579 75.2205 34.4529C73.4741 37.6479 72.6009 41.8014 72.6009 46.9134V85.7329H88.9066V50.9605C88.9066 46.7004 89.6729 43.4877 91.2055 41.3222C92.7381 39.1567 95.1795 38.0739 98.5297 38.0739C101.844 38.0739 104.446 38.8194 106.335 40.3104C108.224 41.8369 109.543 44.0557 110.291 46.9667C111.075 49.9132 111.467 53.4987 111.467 57.7232V85.7329H127.773Z" fill="#0054D1"/>
<path d="M161.187 85.7329V26.1991H144.881V85.7329H161.187ZM153.061 109.056C155.484 109.056 157.569 108.488 159.316 107.352C161.062 106.252 161.935 104.175 161.935 101.122C161.935 98.1047 161.062 96.0102 159.316 94.8387C157.569 93.7026 155.484 93.1346 153.061 93.1346C150.601 93.1346 148.499 93.7026 146.752 94.8387C145.041 96.0102 144.186 98.1047 144.186 101.122C144.186 104.175 145.041 106.252 146.752 107.352C148.499 108.488 150.601 109.056 153.061 109.056Z" fill="#0054D1"/>
<path d="M219.941 26.1991H172.734V35.7842L200.428 73.3256H174.392V85.7329H218.979V75.1893L192.034 38.6064H219.941V26.1991Z" fill="#0054D1"/>
<path d="M273.403 26.1991H226.196V35.7842L253.889 73.3256H227.853V85.7329H272.44V75.1893L245.496 38.6064H273.403V26.1991Z" fill="#0054D1"/>
<path d="M276.717 85.7329H294.573L305.854 52.2385C306.21 51.1735 306.513 50.0907 306.763 48.9902C307.012 47.8897 307.226 46.7537 307.404 45.5822C307.582 44.4107 307.725 43.1859 307.832 41.9079H308.153C308.367 43.8249 308.652 45.6177 309.008 47.2862C309.4 48.9547 309.881 50.6055 310.452 52.2385L321.518 85.7329H339L313.713 18.5843C312.18 14.4663 310.184 11.0405 307.725 8.30704C305.266 5.53802 302.432 3.46126 299.225 2.07676C296.053 0.692253 292.56 0 288.746 0C286.893 0 285.289 0.1065 283.935 0.319501C282.58 0.497002 281.422 0.692253 280.46 0.905254V13.7918C281.208 13.6143 282.153 13.4546 283.293 13.3126C284.434 13.1706 285.628 13.0996 286.875 13.0996C289.156 13.0996 291.116 13.5788 292.756 14.5373C294.395 15.4958 295.767 16.7916 296.872 18.4246C297.977 20.0221 298.85 21.7793 299.492 23.6964L300.454 26.6251L276.717 85.7329Z" fill="#0054D1"/>
</svg>
